<?xml version="1.0" encoding="UTF-8" standalone="no"?>
<!DOCTYPE svg PUBLIC "-//W3C//DTD SVG 1.1//EN" "http://www.w3.org/Graphics/SVG/1.1/DTD/svg11.dtd">
<svg width="100%" height="100%" viewBox="0 0 150 75" version="1.1" xmlns="http://www.w3.org/2000/svg" xmlns:xlink="http://www.w3.org/1999/xlink" xml:space="preserve" xmlns:serif="http://www.serif.com/" style="fill-rule:evenodd;clip-rule:evenodd;stroke-linejoin:round;stroke-miterlimit:2;">
    <g id="Tavola-da-disegno1" serif:id="Tavola da disegno1" transform="matrix(1,0,0,1,-0.332675,-0.383852)">
        <rect x="0.333" y="0.384" width="149.897" height="74.853" style="fill:none;"/>
        <g transform="matrix(1.43813,0,0,1.43813,12.4931,21.346)">
            <path d="M11,17.999L1.322,17.999C0.956,17.999 0.625,18.15 0.386,18.394C0.147,18.637 -0,18.973 -0,19.344L-0,21.654C-0,22.025 0.146,22.36 0.383,22.602C0.623,22.847 0.955,22.999 1.322,22.999L11,22.999L11,17.999ZM27.617,18.397C27.378,18.153 27.045,17.999 26.678,17.999L17,17.999L17,22.999L26.678,22.999C27.045,22.999 27.377,22.847 27.617,22.601C27.854,22.359 28,22.023 28,21.654L28,19.344C28,18.975 27.854,18.641 27.617,18.397ZM27.617,9.398C27.378,9.152 27.045,8.999 26.678,8.999L17,8.999L17,13.999L26.678,13.999C27.045,13.999 27.377,13.845 27.617,13.6C27.854,13.357 28,13.023 28,12.654L28,10.343C28,9.976 27.854,9.641 27.617,9.398ZM11,8.999L1.322,9C0.956,9 0.625,9.151 0.386,9.395C0.147,9.638 -0,9.973 -0,10.343L-0,12.654C-0,13.023 0.146,13.358 0.383,13.601C0.623,13.846 0.955,13.999 1.322,13.999L11,13.999L11,8.999ZM26.654,4.999L1.346,4.999C0.972,4.999 0.634,4.847 0.39,4.602C0.149,4.359 -0,4.025 -0,3.654L-0,1.344C-0,0.973 0.15,0.637 0.392,0.394C0.636,0.15 0.973,-0.001 1.346,-0.001L26.654,-0.001C27.028,-0.001 27.367,0.151 27.61,0.397C27.851,0.641 28,0.975 28,1.344L28,3.654C28,4.023 27.851,4.358 27.61,4.601C27.366,4.847 27.028,4.999 26.654,4.999Z" style="fill:rgb(235,0,40);"/>
            <path d="M85.239,0L83.723,0C81.785,0 81.662,0.215 81.512,0.552L78.513,7.851C77.513,10.273 76.481,12.88 76.088,14.229C75.724,12.88 75.058,11.07 73.664,7.728L70.665,0.552C70.482,0.123 69.725,0 68.088,0L66.392,0C64.725,0 64.391,0.154 64.391,0.491L64.391,22.509C64.391,22.908 64.725,23 66.452,23L67.392,23C69.088,23 69.572,22.908 69.572,22.509L69.572,9.446L69.694,9.446C69.694,9.446 69.845,10.058 70.089,10.61L73.543,18.798C73.694,19.166 73.877,19.321 75.482,19.321L76.513,19.321C78.148,19.321 78.27,19.197 78.422,18.798L81.571,10.918C81.875,10.181 82.087,9.446 82.087,9.446L82.209,9.446L82.209,22.509C82.209,22.908 82.541,23 84.33,23L85.239,23C86.906,23 87.391,22.908 87.391,22.509L87.391,0.491C87.391,0.154 86.906,0 85.239,0ZM59.391,0.491C59.391,0.154 58.922,0 57.315,0L56.378,0C54.682,0 54.391,0.154 54.391,0.491L54.391,22.509C54.391,22.908 54.682,23 56.378,23L57.315,23C58.923,23 59.391,22.908 59.391,22.509L59.391,0.491ZM50.831,0C51.296,0 51.391,0.062 51.391,1.687L51.391,3.19C51.391,4.754 51.266,4.937 50.831,4.937L45.548,4.937L45.548,22.509C45.548,22.908 45.05,23 43.279,23L42.347,23C40.544,23 40.234,22.908 40.234,22.509L40.234,4.937L34.95,4.937C34.514,4.937 34.391,4.815 34.391,3.19L34.391,1.687C34.391,0 34.484,0 34.95,0L50.831,0Z" style="fill:rgb(0,70,145);"/>
        </g>
    </g>
</svg>
